<svg width="370" height="90" viewBox="0 0 370 90" fill="none" xmlns="http://www.w3.org/2000/svg">
<path d="M327.633 86.1726C350.893 86.1726 369.748 67.6422 369.748 44.7838C369.748 21.9254 350.893 3.39502 327.633 3.39502C304.374 3.39502 285.518 21.9254 285.518 44.7838C285.518 67.6422 304.374 86.1726 327.633 86.1726Z" stroke="#FEFEFE" stroke-width="0.200002" stroke-miterlimit="22.9256"/>
<path fill-rule="evenodd" clip-rule="evenodd" d="M162.508 61.0974L162.483 60.9231C162.385 61.0568 162.423 60.7448 162.348 61.1925C162.747 61.2071 162.387 61.2128 162.508 61.0974Z" fill="#A6A6A7"/>
<path fill-rule="evenodd" clip-rule="evenodd" d="M133.798 45.1692C133.685 45.1184 133.685 45.1407 133.589 45.0774C133.611 45.1617 133.581 45.1654 133.661 45.1897C133.879 45.2554 133.638 45.3531 133.798 45.1692Z" fill="#A6A6A7"/>
<path d="M16.9777 3.62731C11.1029 3.62731 6.52031 7.94971 5.99745 13.481H1.63001V3.95987H0V25.1183H1.63001V14.9925H5.93573C6.18192 20.8262 10.8878 25.4507 16.9777 25.4507C23.1903 25.4507 28.0806 20.5842 28.0806 14.5391C28.0806 8.49374 23.1903 3.62736 16.9777 3.62736V3.62731ZM16.9777 23.9091C11.6258 23.9091 7.50453 19.7381 7.50453 14.5391C7.50453 9.3401 11.6258 5.1688 16.9777 5.1688C22.2984 5.1688 26.4506 9.3401 26.4506 14.5391C26.4506 19.7381 22.2984 23.9091 16.9777 23.9091ZM52.7783 25.1183L42.9977 14.2368L52.4706 3.95987H50.5329L41.3674 13.844V3.95987H39.7066V13.844L30.5411 3.95987H28.6034L38.0763 14.2368L28.2957 25.1183H30.2334L39.7066 14.6297V25.1183H41.3673V14.6297L50.8403 25.1183H52.7782H52.7783ZM70.217 3.95987V13.481H57.6993V3.95987H56.069V25.1183H57.6993V14.9925H70.217V25.1183H71.8473V3.95987H70.217ZM87.0718 25.4506C93.2847 25.4506 98.1749 20.5842 98.1749 14.5391C98.1749 8.4937 93.2846 3.62731 87.0718 3.62731C80.8589 3.62731 75.9686 8.49374 75.9686 14.5391C75.9686 20.5842 80.8589 25.4506 87.0718 25.4506ZM87.0718 23.9091C81.7509 23.9091 77.5986 19.7381 77.5986 14.5391C77.5986 9.3401 81.7509 5.1688 87.0718 5.1688C92.3927 5.1688 96.5447 9.3401 96.5447 14.5391C96.5447 19.7381 92.3927 23.9091 87.0718 23.9091ZM114.014 3.95987L108.048 17.6523L101.404 3.95987H99.7127L107.279 19.4659L106.91 20.3123C105.802 22.8513 104.295 23.879 101.989 23.6372V25.1183C104.911 25.3298 107.033 23.9698 108.54 20.4936L115.706 3.95987H114.014H114.014ZM126.102 3.95987H118.782V25.1183H120.412V17.0479H126.102C129.977 17.0479 132.807 14.2368 132.807 10.5191C132.807 6.77098 129.977 3.95987 126.102 3.95987ZM126.102 15.5363H120.412V5.47116H126.102C129.054 5.47116 131.177 7.58691 131.177 10.5191C131.177 13.4208 129.054 15.5363 126.102 15.5363ZM149.169 25.1183H150.892L142.557 3.95987H140.834L132.468 25.1183H134.191L136.282 19.7381H147.078L149.169 25.1183ZM136.897 18.2266L141.695 5.92458L146.494 18.2266H136.897H136.897ZM151.906 25.1183C155.874 25.4507 158.181 23.2141 158.181 16.1712V5.47116H168.515V25.1183H170.176V3.95987H156.551V16.141C156.551 22.3072 154.736 24.03 151.906 23.6974V25.1183L151.906 25.1183ZM182.817 12.0301H177.127V3.95987H175.497V25.1183H182.817C186.692 25.1183 189.522 22.3072 189.522 18.5591C189.522 14.8412 186.692 12.0301 182.817 12.0301ZM182.817 23.6068H177.127V13.5416H182.817C185.77 13.5416 187.892 15.6574 187.892 18.5591C187.892 21.491 185.77 23.6068 182.817 23.6068ZM203.516 25.4506C207.545 25.4506 211.051 23.3953 212.804 20.2819L211.359 19.4659C209.944 22.126 206.93 23.9091 203.516 23.9091C197.857 23.9091 193.951 19.7381 193.951 14.5391C193.951 9.3401 197.857 5.1688 203.516 5.1688C206.899 5.1688 209.883 6.92202 211.297 9.52138L212.743 8.70522C210.959 5.62221 207.484 3.62731 203.516 3.62731C196.965 3.62731 192.321 8.49374 192.321 14.5391C192.321 20.5842 196.965 25.4506 203.516 25.4506ZM231.259 25.1183L220.063 14.2367L230.951 3.95983H228.767L218.279 13.8135V3.95983H216.649V25.1183H218.279V14.6901L229.075 25.1183H231.259ZM248.39 25.1183H250.02V3.95983H248.575L235.872 22.1559V3.95983H234.242V25.1183H235.657L248.39 6.92198V25.1183H248.39ZM259.339 1.33001H267.121V0H259.339V1.33001ZM269.52 25.1183H271.15V3.95983H269.704L257.002 22.1559V3.95983H255.372V25.1183H256.787L269.52 6.92198V25.1183Z" fill="#2E2E2D"/>
<path d="M68.1799 34.4696H63.2589L57.4153 43.8699L51.5714 34.4696H46.6503V55.6281H51.5714V43.3259L57.1382 52.3032H57.6921L63.2589 43.3259V55.6281H68.1799V34.4696H68.1799ZM76.7918 50.9732V47.225H84.481V42.6305H76.7918V39.1243H85.2498V34.4696H71.8708V55.6281H85.4035V50.9732H76.7918ZM105.088 50.9732V34.4696H90.6629V43.9606C90.6629 47.5576 89.9556 49.5827 88.9714 50.9732H86.7875V59.6786H91.7086V55.6281H102.473V59.6786H107.394V50.9732H105.088H105.088ZM94.1999 50.9732C94.9689 49.6129 95.584 47.4972 95.584 44.0212V39.0035H100.167V50.9732H94.1999H94.1999ZM122.004 55.6281H126.925V34.4696H123.234L114.93 45.9555V34.4696H110.009V55.6281H113.7L122.004 44.1421V55.6281ZM146.917 50.9732V34.4696H141.996V50.9732H135.537V34.4696H130.616V55.6281H144.302V59.6786H149.223V50.9732H146.917V50.9732ZM163.833 55.6281H168.754V34.4696H165.063L156.759 45.9555V34.4696H151.838V55.6281H155.529L163.833 44.1421V55.6281ZM184.132 34.4696V42.5704H177.366V34.4696H172.445V55.6281H177.366V47.225H184.132V55.6281H189.053V34.4696H184.132ZM203.017 56.0513C206.954 56.0513 210.398 54.147 212.244 51.1544L207.999 48.7363C207.077 50.3687 205.201 51.3359 203.017 51.3359C199.203 51.3359 196.742 48.8269 196.742 45.0489C196.742 41.2705 199.203 38.7618 203.017 38.7618C205.201 38.7618 207.046 39.7288 207.999 41.3612L212.244 38.943C210.367 35.9507 206.923 34.0464 203.017 34.0464C196.527 34.0464 191.822 38.8222 191.822 45.0489C191.822 51.2755 196.527 56.0513 203.017 56.0513ZM231.959 55.6281L224.393 44.7767L231.651 34.4696H226.053L219.472 43.6582V34.4696H214.551V55.6281H219.472V45.8346L226.361 55.6281H231.959ZM245.799 55.6281H250.72V34.4696H247.029L238.725 45.9555V34.4696H233.804V55.6281H237.495L245.799 44.1421V55.6281ZM258.256 32.6862H267.482V28.7566H258.256V32.6862ZM266.406 55.6281H271.327V34.4696H267.636L259.332 45.9555V34.4696H254.411V55.6281H258.102L266.406 44.1421V55.6281Z" fill="#2E2E2D"/>
<path d="M198.184 81.2945V64.7913H193.263V81.2945H186.804V64.7913H181.883V85.9494H195.569V89.9999H200.49V81.2945H198.184ZM208.026 81.2945V77.5467H215.715V72.9522H208.026V69.446H216.484V64.7913H203.105V85.9495H216.638V81.2945H208.026ZM231.093 64.7913V72.8917H224.327V64.7913H219.406V85.9494H224.327V77.5466H231.093V85.9494H236.014V64.7913H231.093ZM254.161 64.7913H238.167V69.4459H243.703V85.9494H248.624V69.4459H254.161V64.7913ZM264.464 64.7913H256.313V85.9494H261.235V79.2996H264.464C268.708 79.2996 271.999 76.0655 271.999 72.0456C271.999 68.0253 268.708 64.7913 264.464 64.7913ZM264.464 74.7658H261.235V69.3251H264.464C265.971 69.3251 267.078 70.5039 267.078 72.0456C267.078 73.587 265.971 74.7658 264.464 74.7658Z" fill="#2E2E2D"/>
<path fill-rule="evenodd" clip-rule="evenodd" d="M325.565 3.6272H330.957C351.87 5.01294 367.802 22.343 369.52 41.6941C369.667 44.0129 369.699 46.3158 369.52 48.5886C368.728 57.4403 364.834 66.3704 356.974 74.1004C349.162 81.7821 339.738 85.4908 330.339 85.9779H326.07C305.219 84.925 285.725 68.4334 285.725 44.8028C285.725 30.9255 292.887 18.6396 304.138 10.8632C305.894 9.64963 308.703 8.01849 310.908 7.10943C315.93 5.03876 320.846 3.93038 325.565 3.62724L325.565 3.6272ZM323.939 62.9015C323.939 48.3209 306.542 30.5284 311.358 18.4109C315.289 8.52131 341.685 5.2935 353.755 17.3105C365.608 29.1115 371.271 43.4319 364.137 59.4208C359.037 70.8504 344.399 83.7155 329.004 83.7155C330.792 81.317 334.303 84.7875 344.206 77.8407C352.659 71.9102 358.503 61.3377 359.995 50.8229C360.865 44.6963 358.858 37.8909 356.168 33.9432C353.791 35.5075 351.568 39.7897 349.535 42.3562C347.143 45.375 344.485 47.4368 340.654 49.0124C338.379 49.948 337.548 49.9309 335.532 51.2183C333.527 52.4988 332.854 52.9846 331.189 54.6418C329.848 55.9758 328.523 57.0763 327.35 58.5608C326.708 59.3725 326.317 59.9386 325.784 60.6419L323.939 62.9015V62.9015Z" fill="url(#paint0_linear_3_370)"/>
<path fill-rule="evenodd" clip-rule="evenodd" d="M301.25 37.4557C301.25 28.6482 301.884 20.5428 308.029 14.2543C319.688 2.32124 342.695 6.40369 354.313 17.8855C357.826 21.3573 359.633 23.5367 361.999 27.9786C367.151 37.6501 366.955 51.7872 361.877 61.7434C358.116 69.1169 350.992 75.4888 343.458 78.9353C339.032 80.9592 334.084 82.2508 327.954 82.2508C313.707 82.2508 301.25 53.1457 301.25 37.4557ZM285.596 44.2427C285.596 61.3004 295.238 74.8415 309.064 81.811C337.375 96.0805 376.182 72.6879 368.74 35.8337C368.189 33.1048 367.11 30.4653 366.241 28.3352C360.619 14.5492 344.744 3.51978 329.796 3.51978C316.109 3.51978 307.026 6.74144 297.681 15.849C291.409 21.9617 285.596 32.1616 285.596 44.2427H285.596Z" fill="#6CA8BC"/>
<defs>
<linearGradient id="paint0_linear_3_370" x1="293.461" y1="81.6191" x2="356.176" y2="34.1886" gradientUnits="userSpaceOnUse">
<stop stop-color="#304A67"/>
<stop offset="1" stop-color="#5A9FB7"/>
</linearGradient>
</defs>
</svg>
